# xmcd
#
# Track frame offsets:
#	150
#	12687
#	25417
#	41027
#	53666
#	62093
#	79016
#	91681
#	106472
#	117488
#	125126
#	142402
#	153126
#
# Disc length: 2270 seconds
#
# Revision: 1
# Processed by: cddbd v1.5.2PL0 Copyright (c) Steve Scherf et al.
# Submitted via: audiograbber 1.83.01
#
DISCID=b508dc0d
DTITLE=The Hokum High Rollers - High Water Rules
DYEAR=2013
DGENRE=
TTITLE0=Papa's Bout To Get Mad
TTITLE1=Walk On Boy
TTITLE2=Keep It Clean
TTITLE3=Any Kind Of Man
TTITLE4=Dallas Rag
TTITLE5=I Got Mine
TTITLE6=Who Walks In When I Walk Out
TTITLE7=Cold Steel
TTITLE8=She's Totin' Something Good
TTITLE9=Oh By Jingo
TTITLE10=Death Is On Your Track
TTITLE11=Roly Poly
TTITLE12=Stop And Listen
EXTD=
EXTT0=
EXTT1=
EXTT2=
EXTT3=
EXTT4=
EXTT5=
EXTT6=
EXTT7=
EXTT8=
EXTT9=
EXTT10=
EXTT11=
EXTT12=
PLAYORDER=
